<svg width="66" height="64" viewBox="0 0 66 64" fill="none" xmlns="http://www.w3.org/2000/svg">
<g clip-path="url(#clip0)">
<path d="M61.1012 3.72499C58.5931 1.32549 55.2905 0.00411987 51.8016 0.00411987C48.3129 0.00411987 45.0101 1.32562 42.502 3.72511L42.3337 3.88624C38.2511 7.7921 37.1068 13.8443 39.4868 18.9463L43.7012 27.9813V58.4127C43.7012 61.4914 46.2326 63.9959 49.3444 63.9959H53.7228C56.8344 63.9959 59.3658 61.4914 59.3658 58.4127V27.9946L63.8014 19.0895C66.3801 13.9121 65.295 7.73748 61.1012 3.72499ZM56.8392 58.4126C56.8392 60.1127 55.4411 61.4961 53.7227 61.4961H49.3442C47.6257 61.4961 46.2276 60.1129 46.2276 58.4126V39.3739H51.7886V47.4296C51.7886 48.1198 52.3541 48.6795 53.0519 48.6795C53.7496 48.6795 54.3152 48.1199 54.3152 47.4296V39.3739H56.8391V58.4126H56.8392ZM46.2276 36.8743V28.9264H48.144C48.1459 28.9264 48.1476 28.9267 48.1494 28.9267C48.1514 28.9267 48.1534 28.9264 48.1553 28.9264H55.2794C55.2814 28.9264 55.2834 28.9267 55.2853 28.9267C55.2872 28.9267 55.289 28.9264 55.2907 28.9264H56.8391V36.8743H46.2276ZM61.5349 17.9847L57.33 26.4268H56.7751L57.7932 20.3831C57.9079 19.7023 57.443 19.0582 56.7548 18.9447C56.0667 18.8315 55.4157 19.2912 55.301 19.9722L54.2136 26.4268H52.7967V20.1776C52.7967 19.4875 52.2312 18.9277 51.5334 18.9277C50.8357 18.9277 50.2701 19.4873 50.2701 20.1776V26.4268H49.221L48.1336 19.9721C48.019 19.2915 47.368 18.8315 46.6798 18.9447C45.9916 19.0582 45.5266 19.7022 45.6414 20.3832L46.6596 26.4268H45.7585L41.7805 17.899C39.8503 13.7606 40.7783 8.85148 44.0901 5.68311L44.2584 5.52198C48.4883 1.47549 55.1149 1.47549 59.3446 5.52198C62.7465 8.7766 63.6268 13.785 61.5349 17.9847Z" fill="#5CBF1A"/>
<path d="M17.428 40.0116V34.4998C17.428 33.477 16.8033 32.5969 15.9121 32.2103V24.4874C15.9121 23.1027 15.1458 21.8365 13.9122 21.1824L9.86969 19.0394C8.68407 18.411 7.28734 18.4435 6.13306 19.1274C4.9789 19.8107 4.28995 21.0134 4.28995 22.3442V32.2101C3.39872 32.5968 2.77407 33.4769 2.77407 34.4996V40.0115C1.499 40.1374 0.5 41.2045 0.5 42.4986V60.2464C0.5 62.3139 2.20009 63.9959 4.28982 63.9959H15.912C18.0017 63.9959 19.7018 62.3139 19.7018 60.2464V42.4986C19.7019 41.2046 18.7029 40.1375 17.428 40.0116ZM6.81645 22.3442C6.81645 21.7049 7.24615 21.3814 7.43074 21.2719C7.61545 21.1625 8.10668 20.9407 8.67624 21.2426L12.7187 23.3856C13.13 23.6036 13.3853 24.0257 13.3853 24.4872V31.9999H6.81645V22.3442ZM5.30045 34.4998H5.55314H14.6488H14.9015V39.999H5.30057V34.4998H5.30045ZM17.1753 60.2465C17.1753 60.9356 16.6086 61.4964 15.912 61.4964H13.638V51.9976C13.638 51.3075 13.0725 50.7478 12.3747 50.7478C11.677 50.7478 11.1114 51.3074 11.1114 51.9976V61.4964H4.28982C3.59329 61.4964 3.0265 60.9358 3.0265 60.2465V42.4988H17.1753V60.2465Z" fill="#5CBF1A"/>
<path d="M13.2697 46.3645C13.0347 46.132 12.7101 45.9983 12.3766 45.9983C12.0443 45.9983 11.7185 46.1319 11.4835 46.3645C11.2485 46.597 11.1133 46.9194 11.1133 47.2481C11.1133 47.5769 11.2485 47.8993 11.4835 48.1316C11.7185 48.3641 12.0443 48.498 12.3766 48.498C12.7101 48.498 13.0347 48.3642 13.2697 48.1316C13.5047 47.8993 13.6399 47.5769 13.6399 47.2481C13.6399 46.9194 13.5047 46.5969 13.2697 46.3645Z" fill="#5CBF1A"/>
<path d="M37.6424 30.7502H31.8313V18.5018H33.9805C34.6781 18.5018 35.2438 17.9421 35.2438 17.2519C35.2438 16.5616 34.6783 16.002 33.9805 16.002H31.8313V14.5023H33.9805C34.6781 14.5023 35.2438 13.9426 35.2438 13.2524C35.2438 12.5621 34.6783 12.0025 33.9805 12.0025H31.8313V10.5028H33.9805C34.6781 10.5028 35.2438 9.94314 35.2438 9.25289C35.2438 8.56264 34.6783 8.00302 33.9805 8.00302H31.8313V6.50327H33.9805C34.6781 6.50327 35.2438 5.94364 35.2438 5.2534C35.2438 4.56315 34.6783 4.00352 33.9805 4.00352H31.8313V2.50377H33.9805C34.6781 2.50377 35.2438 1.94415 35.2438 1.2539C35.2438 0.563653 34.6783 0.00402832 33.9805 0.00402832H27.1559C26.4582 0.00402832 25.8925 0.563653 25.8925 1.2539C25.8925 1.94415 26.4581 2.50377 27.1559 2.50377H29.3048V4.00352H27.1557C26.4581 4.00352 25.8924 4.56315 25.8924 5.2534C25.8924 5.94364 26.4579 6.50327 27.1557 6.50327H29.3048V8.00302H27.1557C26.4581 8.00302 25.8924 8.56264 25.8924 9.25289C25.8924 9.94314 26.4579 10.5028 27.1557 10.5028H29.3048V12.0025H27.1557C26.4581 12.0025 25.8924 12.5621 25.8924 13.2524C25.8924 13.9426 26.4579 14.5023 27.1557 14.5023H29.3048V16.002H27.1557C26.4581 16.002 25.8924 16.5616 25.8924 17.2519C25.8924 17.9421 26.4579 18.5018 27.1557 18.5018H29.3048V30.7502H23.4938C22.7961 30.7502 22.2305 31.3099 22.2305 32.0001V45.9612C22.2305 52.1088 23.9328 58.1369 27.1536 63.3939C27.3826 63.7677 27.7921 63.9958 28.234 63.9958H32.9022C33.3441 63.9958 33.7537 63.7676 33.9826 63.3939C37.2034 58.1368 38.9057 52.1087 38.9057 45.9612V32C38.9056 31.3097 38.3401 30.7502 37.6424 30.7502ZM36.3791 45.9611C36.3791 51.4182 34.9296 56.7743 32.1813 61.4962H28.9545C26.2064 56.7742 24.7568 51.4182 24.7568 45.9611V38.7491H32.3694C33.0671 38.7491 33.6328 38.1895 33.6328 37.4992C33.6328 36.809 33.0672 36.2493 32.3694 36.2493H24.7568V33.2497H36.379V45.9611H36.3791Z" fill="#5CBF1A"/>
<path d="M53.9455 50.9201C53.7105 50.6876 53.3847 50.5539 53.0524 50.5539C52.7201 50.5539 52.3943 50.6875 52.1593 50.9201C51.9243 51.1526 51.7891 51.4749 51.7891 51.8038C51.7891 52.1325 51.9243 52.4549 52.1593 52.6873C52.3943 52.921 52.7201 53.0536 53.0524 53.0536C53.3847 53.0536 53.7105 52.921 53.9455 52.6873C54.1805 52.4549 54.3157 52.1336 54.3157 51.8038C54.3157 51.4749 54.1805 51.1526 53.9455 50.9201Z" fill="#5CBF1A"/>
</g>
<defs>
<clipPath id="clip0">
<rect width="64.6882" height="64" fill="white" transform="translate(0.5)"/>
</clipPath>
</defs>
</svg>
