<svg width="65" height="64" viewBox="0 0 65 64" fill="none" xmlns="http://www.w3.org/2000/svg">
<g clip-path="url(#clip0)">
<path d="M20 46.2502C19.31 46.2502 18.75 46.8102 18.75 47.5002C18.75 48.1903 19.31 48.7503 20 48.7503C20.69 48.7503 21.25 48.1903 21.25 47.5002C21.25 46.8102 20.69 46.2502 20 46.2502Z" fill="#5CBF1A"/>
<path d="M56.7679 23.7509L64.1341 16.3847C64.4439 16.0749 64.5688 15.6254 64.4634 15.2001C64.3581 14.7747 64.0376 14.4357 63.6188 14.3065L45.6813 8.77023C44.0643 3.5726 39.2583 0.000976562 33.7499 0.000976562C28.6294 0.000976562 24.0499 3.1216 22.1546 7.8291L1.37781 14.3076C0.960182 14.4379 0.640932 14.7771 0.536307 15.202C0.431682 15.6267 0.556682 16.0755 0.866057 16.3849L8.42593 23.9447L3.65793 31.8916C3.46281 32.2167 3.42593 32.6129 3.55743 32.9685C3.68893 33.3241 3.97481 33.6007 4.33456 33.7206L11.2499 36.0256V55.2509C11.2499 55.7719 11.5732 56.2382 12.0611 56.4212C16.2894 58.0067 32.0001 63.899 32.0844 63.9289C32.3324 64.0162 32.6118 64.0281 32.8842 63.94C32.8878 63.9387 32.8916 63.938 32.8952 63.9367L55.3952 56.4367C55.9056 56.2666 56.2499 55.7889 56.2499 55.2509V35.5109L63.6247 33.1934C64.0417 33.0624 64.3599 32.7231 64.4641 32.2986C64.5681 31.8741 64.4429 31.4261 64.1339 31.117L56.7679 23.7509ZM46.2499 12.501C46.2499 12.1834 46.2366 11.8665 46.2127 11.5506L60.8994 16.0837L54.6623 22.3207L44.4713 18.9241C45.6253 16.9952 46.2499 14.7695 46.2499 12.501ZM24.2908 9.24748C25.6784 5.21223 29.4798 2.50098 33.7499 2.50098C38.3501 2.50098 42.3398 5.61248 43.4522 10.0675C43.6498 10.8591 43.7499 11.6779 43.7499 12.501C43.7499 14.8227 42.9794 16.9989 41.5214 18.795C39.6118 21.1502 36.7792 22.501 33.7499 22.501C30.4754 22.501 27.4041 20.8937 25.5333 18.2005C24.3667 16.5247 23.7499 14.5537 23.7499 12.501C23.7499 11.3846 23.9318 10.29 24.2908 9.24748ZM4.09556 16.0789L21.3831 10.6884C21.2963 11.2856 21.2499 11.8906 21.2499 12.5009C21.2499 14.5135 21.7267 16.4629 22.6354 18.2217L10.3376 22.3207L4.09556 16.0789ZM6.60343 31.8416L10.5559 25.2539L30.6263 31.944L26.6739 38.5317C24.5308 37.8174 8.89168 32.6042 6.60343 31.8416ZM31.2499 60.9472L13.7499 54.3847V36.859C27.5187 41.4242 26.8463 41.2849 27.2297 41.2849C27.6594 41.2849 28.0709 41.0625 28.3018 40.6779L31.2499 35.764V60.9472ZM32.4999 29.9334L13.9529 23.7511L24.0522 20.3849C26.4159 23.2907 29.9743 25.001 33.7499 25.001C37.2427 25.001 40.5253 23.5636 42.8864 21.0311L51.0469 23.751L32.4999 29.9334ZM53.7499 54.35L33.7499 61.0166V34.8141L38.1813 40.3529C38.5037 40.7557 39.0403 40.919 39.5322 40.7645L53.7499 36.2966V54.35ZM39.5989 38.1231L34.5959 31.8699L54.6623 25.1811L60.9078 31.4266L39.5989 38.1231Z" fill="#5CBF1A"/>
<path d="M27.938 49.0248L25.158 47.9823C24.5117 47.74 23.7912 48.0674 23.5487 48.7138C23.3063 49.3603 23.6338 50.0808 24.2802 50.3231L27.0602 51.3656C27.7079 51.6084 28.4275 51.2794 28.6695 50.6341C28.9119 49.9878 28.5844 49.2671 27.938 49.0248Z" fill="#5CBF1A"/>
<path d="M27.9393 54.3648L20.4393 51.5523C19.793 51.3099 19.0725 51.6374 18.83 52.2838C18.5875 52.9301 18.9151 53.6508 19.5615 53.8931L27.0615 56.7056C27.2061 56.7599 27.3543 56.7856 27.5002 56.7856C28.0063 56.7856 28.4826 56.476 28.6708 55.9741C28.9133 55.3276 28.5858 54.6071 27.9393 54.3648Z" fill="#5CBF1A"/>
<path d="M40.8841 7.86626C40.396 7.37801 39.6045 7.37814 39.1163 7.86626L32.5001 14.4825L30.884 12.8664C30.3959 12.3783 29.6044 12.3783 29.1161 12.8664C28.6279 13.3545 28.628 14.146 29.1161 14.6343L31.6163 17.1341C32.1044 17.6223 32.8959 17.6223 33.3841 17.1341L40.8841 9.63414C41.3723 9.14601 41.3723 8.35451 40.8841 7.86626Z" fill="#5CBF1A"/>
</g>
<defs>
<clipPath id="clip0">
<rect width="64" height="64" fill="white" transform="translate(0.5)"/>
</clipPath>
</defs>
</svg>
