<svg width="65" height="64" viewBox="0 0 65 64" fill="none" xmlns="http://www.w3.org/2000/svg">
<g clip-path="url(#clip0)">
<path d="M17.6213 40.2793C18.2189 39.9346 18.4235 39.1695 18.0788 38.5718C17.7336 37.9746 16.9689 37.7696 16.3713 38.1143C15.7736 38.4595 15.5685 39.2246 15.9137 39.8218C16.2585 40.4195 17.0236 40.6245 17.6213 40.2793Z" fill="#5CBF1A"/>
<path d="M12.498 48.9068L18.7929 59.8106C20.1513 62.1661 23.207 63.0381 25.6235 61.6412C28.0146 60.2593 28.8364 57.2041 27.4531 54.8111L23.7031 48.315L26.9507 46.44C27.5483 46.0943 27.7534 45.3301 27.4082 44.7325L25.7827 41.917C25.9765 41.8794 27.251 41.6294 49.7251 37.2207C52.5034 37.0698 54.1679 34.0313 52.7646 31.6021L48.6103 24.4068L51.2651 20.3858C51.5259 19.9902 51.5415 19.4819 51.3047 19.0718L48.8047 14.7417C48.5678 14.3315 48.1181 14.0913 47.6469 14.1191L42.8379 14.4077L38.2261 6.41943C37.5581 5.26221 36.3613 4.56152 35.0254 4.54492C35.0093 4.54443 34.9936 4.54443 34.9775 4.54443C33.6865 4.54443 32.5146 5.18701 31.8203 6.27344L15.4912 27.0752L4.87547 33.2041C0.700175 35.6138 -0.746114 40.9702 1.67283 45.1568C3.88279 48.9849 8.54197 50.4908 12.498 48.9068ZM25.2886 56.0616C25.979 57.2559 25.5703 58.7842 24.3725 59.4761C23.1709 60.1709 21.6406 59.7442 20.958 58.5611L14.708 47.7344L19.0381 45.2344C26.2715 57.7647 25.1723 55.8609 25.2886 56.0616ZM22.4531 46.1494L21.2031 43.9844L23.3681 42.7344L24.6181 44.8994L22.4531 46.1494ZM47.0259 16.6607L48.7534 19.6528L47.2129 21.9859L44.2353 16.8281L47.0259 16.6607ZM33.9111 7.64405C34.2466 7.09522 34.7788 7.03858 34.9946 7.04444C35.208 7.04688 35.7397 7.11328 36.0605 7.66895L50.5996 32.8521C51.0732 33.6719 50.4975 34.7027 49.5478 34.7261C49.3774 34.73 49.2988 34.7608 48.8623 34.8423L33.4829 8.2041C33.8056 7.78906 33.8471 7.74903 33.9111 7.64405ZM31.8193 10.3232L46.269 35.3511L24.4614 39.6284L17.8305 28.1436L31.8193 10.3232ZM3.83787 43.9068C3.28904 42.9571 2.999 41.8789 2.999 40.7881C2.999 38.5586 4.19725 36.4824 6.12547 35.3692L15.8681 29.7442L22.1181 40.5694L12.3755 46.1949C9.3906 47.9175 5.56102 46.8911 3.83787 43.9068Z" fill="#5CBF1A"/>
<path d="M13.7487 41.0718C13.4035 40.4741 12.6388 40.269 12.0412 40.6142L9.87615 41.8642C9.27947 42.209 8.51335 42.0034 8.16863 41.4067C7.82341 40.8091 7.05876 40.604 6.46111 40.9492C5.86345 41.2944 5.65837 42.0591 6.00359 42.6567C7.0324 44.439 9.32732 45.0674 11.1261 44.0293L13.2912 42.7793C13.8888 42.4341 14.0939 41.6699 13.7487 41.0718Z" fill="#5CBF1A"/>
<path d="M62.6429 7.21826L55.6776 11.0942C55.0745 11.4302 54.8573 12.1914 55.1932 12.7944C55.5282 13.397 56.2889 13.6152 56.8934 13.2788L63.8582 9.40283C64.4618 9.06689 64.6786 8.30566 64.3426 7.70264C64.0072 7.09912 63.2459 6.88232 62.6429 7.21826Z" fill="#5CBF1A"/>
<path d="M61.9116 20.1645L57.082 18.8706C56.415 18.6919 55.7294 19.0874 55.5507 19.7544C55.372 20.4214 55.768 21.1064 56.435 21.2851L61.2651 22.5791C61.936 22.7593 62.6181 22.3574 62.7958 21.6953C62.9745 21.0283 62.5785 20.3428 61.9116 20.1645Z" fill="#5CBF1A"/>
<path d="M49.7758 2.67675L48.4804 7.50682C48.3017 8.17382 48.6972 8.85887 49.3642 9.03807C50.0307 9.2163 50.7163 8.82176 50.8955 8.15428L52.1904 3.32421C52.3691 2.65722 51.9736 1.97167 51.3066 1.79296C50.6401 1.61425 49.9545 2.00976 49.7758 2.67675Z" fill="#5CBF1A"/>
</g>
<defs>
<clipPath id="clip0">
<rect width="64" height="64" fill="white" transform="translate(0.5)"/>
</clipPath>
</defs>
</svg>
