<svg width="64" height="64" viewBox="0 0 64 64" fill="none" xmlns="http://www.w3.org/2000/svg">
<g clip-path="url(#clip0)">
<path d="M32.1569 24.8C37.402 24.8 41.6537 20.5021 41.6537 15.2C41.6537 9.89792 37.402 5.60001 32.1569 5.60001C26.9119 5.60001 22.6602 9.89792 22.6602 15.2C22.6658 20.4995 26.9144 24.7943 32.1569 24.8ZM32.1569 7.73334C36.2365 7.73334 39.5433 11.076 39.5433 15.2C39.5433 19.324 36.2365 22.6667 32.1569 22.6667C28.0773 22.6667 24.7705 19.324 24.7705 15.2C24.7752 11.0781 28.0794 7.73803 32.1569 7.73334Z" fill="#5CBF1A"/>
<path d="M9.99473 21.6C12.9084 21.6 15.2707 19.212 15.2707 16.2667C15.2707 13.3214 12.9084 10.9333 9.99473 10.9333C7.08109 10.9333 4.71875 13.3214 4.71875 16.2667C4.72236 19.211 7.08212 21.5964 9.99473 21.6ZM9.99473 13.0667C11.7429 13.0667 13.1603 14.4995 13.1603 16.2667C13.1603 18.0339 11.7429 19.4667 9.99473 19.4667C8.24655 19.4667 6.82914 18.0339 6.82914 16.2667C6.82914 14.4995 8.24655 13.0667 9.99473 13.0667Z" fill="#5CBF1A"/>
<path d="M54.315 21.6C57.2287 21.6 59.591 19.212 59.591 16.2667C59.591 13.3214 57.2287 10.9333 54.315 10.9333C51.4014 10.9333 49.0391 13.3214 49.0391 16.2667C49.0427 19.211 51.4024 21.5964 54.315 21.6ZM54.315 13.0667C56.0632 13.0667 57.4806 14.4995 57.4806 16.2667C57.4806 18.0339 56.0632 19.4667 54.315 19.4667C52.5669 19.4667 51.1495 18.0339 51.1495 16.2667C51.1495 14.4995 52.5669 13.0667 54.315 13.0667Z" fill="#5CBF1A"/>
<path d="M58.5358 21.6C58.3075 21.6 58.0855 21.675 57.9025 21.8136L54.315 24.5333L50.7274 21.8136C50.5445 21.675 50.3225 21.6 50.0942 21.6C48.3574 21.5979 46.7333 22.4688 45.7606 23.9234C44.1598 23.1037 42.392 22.6734 40.5974 22.6667C40.3177 22.6667 40.0492 22.7792 39.8514 22.9792L32.1559 30.7583L24.4604 22.9792C24.2625 22.7792 23.9941 22.6667 23.7143 22.6667C21.9198 22.6734 20.152 23.1037 18.5512 23.9234C17.5784 22.4688 15.9544 21.5979 14.2175 21.6C13.9893 21.6 13.7672 21.675 13.5843 21.8136L9.99676 24.5333L6.4092 21.8136C6.22629 21.675 6.00423 21.6 5.77598 21.6C2.86337 21.6037 0.503607 23.9891 0.5 26.9333V36.4162C0.500515 37.5203 1.06263 38.5469 1.98799 39.1339L8.44437 43.2151C8.94826 43.524 9.52584 43.687 10.1148 43.6865C10.6037 43.6875 11.086 43.574 11.5234 43.3547L12.1072 43.0594V47.9469C12.1066 49.213 12.8445 50.3604 13.9898 50.8734L30.0161 58.0724C31.3774 58.686 32.9323 58.686 34.2936 58.0724L50.3209 50.8724C51.4663 50.3599 52.2046 49.2125 52.2046 47.9469V41.9896L52.9032 42.3401C53.792 42.788 54.8369 42.788 55.7257 42.3401L62.0569 39.1401C63.1342 38.6021 63.8148 37.4917 63.8117 36.2771V26.9333C63.8081 23.9891 61.4484 21.6037 58.5358 21.6ZM10.5805 41.4401C10.2528 41.6021 9.86589 41.5849 9.55366 41.3943L3.11686 37.325C2.80773 37.1271 2.61709 36.7859 2.61039 36.4162V26.9333C2.61039 25.2948 3.83458 23.9208 5.44675 23.7505L9.36354 26.7198C9.73863 27.0047 10.2549 27.0047 10.63 26.7198L14.5468 23.7505C15.4253 23.8412 16.2249 24.3016 16.7499 25.0188C16.6793 25.0719 16.618 25.1349 16.5485 25.1896C16.3851 25.3193 16.2321 25.4563 16.0734 25.5938C15.8709 25.7719 15.6736 25.9531 15.485 26.1438C15.3392 26.2912 15.2011 26.4417 15.0625 26.5964C14.8853 26.7953 14.7153 27.0005 14.5519 27.212C14.4278 27.374 14.3062 27.5318 14.1902 27.7047C14.0372 27.9255 13.8966 28.1526 13.7595 28.3828C13.6539 28.5557 13.555 28.7287 13.4612 28.9068C13.3344 29.149 13.2216 29.3974 13.1119 29.6531C13.0335 29.8323 12.9511 30.0094 12.8815 30.1943C12.7759 30.462 12.6981 30.7359 12.6157 31.0125C12.5631 31.1906 12.5029 31.3641 12.4585 31.5458C12.3828 31.8547 12.3297 32.1719 12.2792 32.4886C12.254 32.6443 12.2169 32.7969 12.1978 32.9537C12.1386 33.4333 12.1082 33.9167 12.1072 34.4V40.674L10.5805 41.4401ZM50.0942 47.9469C50.0942 48.3708 49.8453 48.7542 49.461 48.924L33.4347 56.125C32.6201 56.4927 31.6896 56.4927 30.875 56.125L14.8508 48.924C14.4664 48.7542 14.2175 48.3708 14.2175 47.9469V34.4C14.217 33.5797 14.3196 32.7625 14.5226 31.9682C15.587 27.9026 19.137 25.0052 23.2923 24.8094L31.417 33.0229C31.8292 33.4396 32.4975 33.4396 32.9091 33.0229L41.0344 24.8094C46.1006 25.0537 50.0865 29.2729 50.0942 34.4V47.9469ZM61.7014 36.2771C61.7024 36.6849 61.4741 37.0573 61.1124 37.2375L54.7813 40.4375C54.4876 40.5854 54.1414 40.5854 53.8477 40.4375L52.2046 39.6052V34.4C52.2036 33.9146 52.1732 33.4297 52.1139 32.9484C52.0948 32.7906 52.0578 32.638 52.0325 32.4823C51.981 32.162 51.9269 31.8495 51.8532 31.5412C51.8089 31.3589 51.7476 31.1839 51.695 31.0078C51.6136 30.7339 51.5312 30.4609 51.4312 30.1943C51.3606 30.0083 51.2772 29.8292 51.1978 29.6479C51.0922 29.3995 50.9783 29.1531 50.8516 28.912C50.7578 28.7318 50.6532 28.5568 50.5502 28.3787C50.4152 28.1505 50.2745 27.9266 50.1282 27.7089C50.0097 27.538 49.8866 27.3719 49.7598 27.2073C49.5991 26.9943 49.4326 26.799 49.2575 26.6016C49.1184 26.4448 48.9756 26.2901 48.8278 26.1406C48.6423 25.9521 48.447 25.774 48.2476 25.5979C48.0905 25.4594 47.9313 25.3203 47.7664 25.1896C47.6979 25.1349 47.6365 25.0719 47.566 25.0188C48.091 24.3016 48.8901 23.8412 49.7681 23.7505L53.6818 26.7198C54.0569 27.0047 54.5731 27.0047 54.9482 26.7198L58.865 23.7505C60.4772 23.9208 61.7014 25.2948 61.7014 26.9333V36.2771Z" fill="#5CBF1A"/>
</g>
<defs>
<clipPath id="clip0">
<rect width="63.3118" height="64" fill="white" transform="translate(0.5)"/>
</clipPath>
</defs>
</svg>
