<?xml version="1.0" encoding="utf-8"?><svg xmlns="http://www.w3.org/2000/svg" xmlns:xlink="http://www.w3.org/1999/xlink"><symbol viewBox="0 0 9 17" id="icon-arrow-left" xmlns="http://www.w3.org/2000/svg"><path d="M8.461 1.308L1.154 8.615l7.307 7.308"/></symbol><symbol viewBox="0 0 9 17" id="icon-arrow-right" xmlns="http://www.w3.org/2000/svg"><path d="M.538 15.692l7.308-7.307L.54 1.077"/></symbol><symbol viewBox="0 0 14 14" id="icon-basket" xmlns="http://www.w3.org/2000/svg"><path d="M4.2 11.2c-.77 0-1.4.63-1.4 1.4 0 .77.63 1.4 1.4 1.4.77 0 1.4-.63 1.4-1.4 0-.77-.63-1.4-1.4-1.4zM0 0v1.4h1.4l2.52 5.32-.98 1.68c-.07.21-.14.49-.14.7 0 .77.63 1.4 1.4 1.4h8.4V9.1H4.48a.15.15 0 0 1-.14-.14v-.07l.63-1.19h5.18c.56 0 .98-.28 1.19-.7l2.52-4.55c.14-.14.14-.21.14-.35 0-.42-.28-.7-.7-.7H2.94L2.31 0H0zm11.2 11.2c-.77 0-1.4.63-1.4 1.4 0 .77.63 1.4 1.4 1.4.77 0 1.4-.63 1.4-1.4 0-.77-.63-1.4-1.4-1.4z"/></symbol><symbol viewBox="0 0 16 16" id="icon-favourites" xmlns="http://www.w3.org/2000/svg"><g clip-path="url(#dclip0)"><path d="M7.664 15.125a.842.842 0 0 1-.577-.232 176.557 176.557 0 0 0-1.697-1.565l-.002-.003c-1.504-1.373-2.802-2.56-3.705-3.728C.673 8.29.203 7.052.203 5.699c0-1.315.42-2.528 1.184-3.416C2.159 1.385 3.219.89 4.37.89c.862 0 1.65.292 2.345.868.35.29.668.646.948 1.061a5 5 0 0 1 .948-1.061c.694-.576 1.483-.868 2.344-.868 1.152 0 2.212.495 2.985 1.393.763.888 1.183 2.1 1.183 3.416 0 1.353-.47 2.591-1.48 3.898-.903 1.168-2.2 2.354-3.704 3.728-.513.47-1.096 1.001-1.7 1.568a.842.842 0 0 1-.576.232zM4.37 1.827c-.905 0-1.737.388-2.342 1.091-.614.715-.952 1.702-.952 2.78 0 1.139.395 2.156 1.279 3.3.855 1.107 2.126 2.269 3.598 3.614l.003.002c.515.47 1.098 1.004 1.705 1.573.611-.57 1.196-1.104 1.711-1.575 1.472-1.345 2.744-2.507 3.599-3.613.884-1.145 1.278-2.162 1.278-3.3 0-1.079-.338-2.066-.952-2.78a3.053 3.053 0 0 0-2.342-1.092c-.663 0-1.272.226-1.81.672-.479.398-.813.9-1.008 1.252a.541.541 0 0 1-.474.288.541.541 0 0 1-.474-.288c-.196-.352-.53-.854-1.009-1.252-.538-.446-1.146-.672-1.81-.672z"/></g><defs><clipPath id="dclip0"><path transform="matrix(1 0 0 -1 .203 16)" d="M0 0h14.921v16H0z"/></clipPath></defs></symbol><symbol viewBox="0 0 8 16" id="icon-fb" xmlns="http://www.w3.org/2000/svg"><path d="M4.514 15.895V7.989h2.583l.408-2.62H4.514V4.057c0-.684.222-1.336 1.193-1.336H7.65V.105H4.892c-2.318 0-2.95 1.542-2.95 3.678v1.585H.352V7.99h1.59v7.906h2.572z"/></symbol><symbol viewBox="0 0 11 11" id="icon-heart" xmlns="http://www.w3.org/2000/svg"><path fill-rule="evenodd" clip-rule="evenodd" d="M5.075 10.323a.62.62 0 0 0 .425.171c.157 0 .308-.06.425-.171.446-.418.875-.81 1.253-1.156C8.286 8.155 9.243 7.28 9.91 6.42 10.653 5.456 11 4.542 11 3.545c0-.97-.31-1.863-.873-2.518A2.87 2.87 0 0 0 7.927 0 2.65 2.65 0 0 0 6.2.64a3.691 3.691 0 0 0-.699.782 3.69 3.69 0 0 0-.7-.782A2.65 2.65 0 0 0 3.073 0c-.85 0-1.631.365-2.2 1.027C.31 1.682 0 2.576 0 3.545c0 .997.347 1.91 1.091 2.874.666.861 1.623 1.736 2.731 2.748l.002.002c.378.346.806.737 1.25 1.154z"/></symbol><symbol viewBox="0 0 14 16" id="icon-instagram" xmlns="http://www.w3.org/2000/svg"><g clip-path="url(#gclip0)"><path d="M10.167.895H3.832C1.78.895.108 2.617.108 4.735v6.53c0 2.118 1.67 3.84 3.724 3.84h6.335c2.054 0 3.725-1.722 3.725-3.84v-6.53c0-2.118-1.671-3.84-3.725-3.84zm2.611 10.37c0 1.485-1.171 2.692-2.61 2.692H3.831c-1.44 0-2.61-1.207-2.61-2.691V4.734c0-1.484 1.17-2.691 2.61-2.691h6.335c1.44 0 2.611 1.207 2.611 2.691v6.532z"/><path d="M10.084 7.504a3.2 3.2 0 0 0-.871-1.786 3.037 3.037 0 0 0-2.64-.898 3.056 3.056 0 0 0-2.028 1.253A3.24 3.24 0 0 0 3.97 8.44a3.184 3.184 0 0 0 1.216 2.092 3.007 3.007 0 0 0 2.294.593A3.056 3.056 0 0 0 9.51 9.87a3.24 3.24 0 0 0 .574-2.366zM7.317 9.988A1.92 1.92 0 0 1 5.85 9.61a2.04 2.04 0 0 1-.778-1.338 2.073 2.073 0 0 1 .368-1.514 1.955 1.955 0 0 1 1.878-.802c.868.133 1.537.823 1.666 1.718.16 1.112-.587 2.15-1.666 2.315zm3.561-5.986a.552.552 0 0 0-.394-.168.552.552 0 0 0-.394.168.587.587 0 0 0 0 .812.553.553 0 0 0 .394.168c.147 0 .29-.061.394-.168a.587.587 0 0 0 0-.812z"/></g><defs><clipPath id="gclip0"><path transform="translate(.108 .895)" d="M0 0h13.784v14.21H0z"/></clipPath></defs></symbol><symbol viewBox="0 0 28 29" id="icon-like" xmlns="http://www.w3.org/2000/svg"><g clip-path="url(#hclip0)"><path d="M10.36 14.443a.472.472 0 0 0-.667-.191l-3.393 2.1a.547.547 0 0 0-.179.715c.135.25.435.336.668.192l3.392-2.1a.547.547 0 0 0 .179-.716zm9.023-6.191l-3.392 2.1a.547.547 0 0 0-.18.716c.135.25.435.336.668.192l3.393-2.1a.547.547 0 0 0 .178-.716.47.47 0 0 0-.667-.192zm-7.871 1.581a.547.547 0 0 0 .179-.716L9.732 5.48a.472.472 0 0 0-.667-.191.547.547 0 0 0-.18.715l1.96 3.638c.134.25.434.336.667.192zm2.758-.387a.53.53 0 0 0 .229-.318l1.015-4.062c.07-.28-.085-.568-.346-.643-.262-.075-.53.091-.6.371l-1.015 4.062c-.07.28.085.568.346.643a.475.475 0 0 0 .371-.053zm-4.82 2.808a.461.461 0 0 0 .37-.053.53.53 0 0 0 .229-.318c.07-.28-.085-.567-.346-.643l-3.788-1.088c-.262-.075-.53.09-.6.371-.07.28.085.568.346.643l3.788 1.088z"/><path d="M19.712 12.47a1.911 1.911 0 0 0-1.385.248l-.385.238-1.382.856-.656.406-.988-1.834c-.472-.877-1.06-1.366-1.748-1.449-1.083-.126-1.935.85-1.973.894a.554.554 0 0 0-.064.614l1.19 2.213c.363.673.371 1.43.021 2.256a4.498 4.498 0 0 1-.69 1.128l-.036.038a.94.94 0 0 0-.822.09l-1.608.995c-.48.297-.645.959-.368 1.473l3.046 5.657c.277.515.894.692 1.374.395l1.615-1a1.05 1.05 0 0 0 .44-.564 1.93 1.93 0 0 0 1.536-.22l1.604-.994.166-.102 3.283-2.033c.508-.314.884-.724 1.094-1.181.266-.589.267-1.26-.002-1.95l-1.688-4.753c-.26-.736-.864-1.28-1.574-1.42zm-5.337 12.27a.031.031 0 0 1-.01.041l-1.616 1c-.014.01-.03.004-.039-.01l-3.045-5.658a.031.031 0 0 1 .01-.041l1.615-1c.014-.01.031-.004.04.01l3.045 5.658zm6-10.47l1.692 4.76a.05.05 0 0 1 .007.02c.112.279.446 1.126-.679 1.822l-3.283 2.033-.165.102-1.605.994c-.451.28-1.042.16-1.37-.276a1.244 1.244 0 0 0-.04-.046l-2.618-4.863.02-.023c.008-.004.009-.01.016-.015.02-.022.523-.575.872-1.402.489-1.144.472-2.268-.054-3.243l-.99-1.838c.22-.17.546-.358.882-.319.362.043.7.358 1.008.929l1.232 2.288c.134.25.435.335.667.191l1.08-.668 1.382-.855.384-.238a1.01 1.01 0 0 1 .717-.127c.38.078.7.374.845.773z"/></g><defs><clipPath id="hclip0"><path transform="matrix(.85025 -.52639 .47407 .88049 .524 10.575)" d="M0 0h20.09v20.803H0z"/></clipPath></defs></symbol><symbol viewBox="0 0 18 18" id="icon-search" xmlns="http://www.w3.org/2000/svg"><path d="M15.775 2.225A7.547 7.547 0 0 0 10.403 0C8.373 0 6.465.79 5.03 2.225a7.548 7.548 0 0 0-2.225 5.372c0 1.55.462 3.03 1.319 4.281L.41 15.572c-.264.265-.41.617-.41.991a1.398 1.398 0 0 0 1.402 1.4 1.39 1.39 0 0 0 .99-.408l3.71-3.692a7.543 7.543 0 0 0 4.3 1.332c2.03 0 3.938-.79 5.373-2.226A7.547 7.547 0 0 0 18 7.598c0-2.029-.79-3.937-2.225-5.372zM1.647 16.81a.348.348 0 0 1-.492-.49l3.628-3.61a7.718 7.718 0 0 0 .49.492L1.647 16.81zm13.382-4.585a6.55 6.55 0 0 1-9.253 0 6.55 6.55 0 0 1 0-9.253 6.5 6.5 0 0 1 4.627-1.916 6.5 6.5 0 0 1 4.626 1.916 6.55 6.55 0 0 1 0 9.253z"/><path d="M14.496 3.504a5.796 5.796 0 0 0-8.187 0 5.796 5.796 0 0 0 0 8.187 5.772 5.772 0 0 0 4.094 1.693 5.772 5.772 0 0 0 4.093-1.693 5.796 5.796 0 0 0 0-8.187zm-.745 7.442a4.74 4.74 0 0 1-6.697 0 4.74 4.74 0 0 1 0-6.696 4.72 4.72 0 0 1 3.349-1.385A4.72 4.72 0 0 1 13.75 4.25a4.74 4.74 0 0 1 0 6.696z"/></symbol><symbol viewBox="0 0 13 18" id="icon-user" xmlns="http://www.w3.org/2000/svg"><path d="M0 15.235l.312.288c.02.019.043.034.063.053a9.815 9.815 0 0 0 .684.565c.187.14.38.274.575.401.043.028.086.054.13.081.214.134.433.26.658.375l.05.025a8.966 8.966 0 0 0 2.329.806l.064.013c.254.048.51.086.77.112l.095.008c.258.023.52.038.784.038.262 0 .521-.015.778-.038l.098-.008a8.93 8.93 0 0 0 .763-.11l.008-.001.057-.012a8.963 8.963 0 0 0 2.296-.787l.08-.04a9.394 9.394 0 0 0 1.342-.838c.065-.048.129-.099.193-.15a9.78 9.78 0 0 0 .451-.376c.033-.029.068-.054.1-.083l.32-.293-.563-.495a2.61 2.61 0 0 0-.313-.206l-2.966-1.621a.86.86 0 0 1-.431-.763v-1.133a6.33 6.33 0 0 0 .216-.313 8.1 8.1 0 0 0 .916-1.962c.444-.23.73-.714.73-1.26V6.155c0-.332-.11-.654-.31-.907V3.459c.018-.199.082-1.32-.66-2.245C8.974.408 7.93 0 6.514 0s-2.46.408-3.105 1.213c-.742.926-.678 2.048-.66 2.246v1.787c-.199.254-.31.576-.31.908V7.51c0 .422.173.815.469 1.08a7.475 7.475 0 0 0 1.082 2.45v1.108a.87.87 0 0 1-.407.75L.815 14.549a2.51 2.51 0 0 0-.263.182L0 15.235z"/></symbol><symbol viewBox="0 0 16 9" id="icon-vk" xmlns="http://www.w3.org/2000/svg"><path d="M15.621 8.055a1.018 1.018 0 0 0-.052-.097c-.267-.47-.778-1.045-1.532-1.727l-.016-.015-.008-.008-.008-.008h-.008a9.161 9.161 0 0 1-.65-.64c-.166-.208-.203-.42-.112-.633.064-.161.305-.502.722-1.023.219-.276.393-.497.52-.664.926-1.197 1.327-1.963 1.204-2.296l-.048-.078c-.032-.047-.115-.09-.248-.129a1.296 1.296 0 0 0-.514-.02l-2.31.016a.308.308 0 0 0-.16.004l-.104.024-.04.02-.032.023a.352.352 0 0 0-.089.082.53.53 0 0 0-.08.137c-.251.63-.537 1.215-.858 1.757-.198.323-.38.602-.546.84a4.054 4.054 0 0 1-.417.523 2.871 2.871 0 0 1-.305.269c-.09.068-.16.096-.208.086a6.047 6.047 0 0 1-.136-.031.525.525 0 0 1-.18-.192.84.84 0 0 1-.093-.304 3.272 3.272 0 0 1-.024-.692c.005-.161.008-.27.008-.328 0-.197.004-.412.012-.644.008-.232.014-.415.02-.55.005-.136.008-.279.008-.43 0-.151-.01-.27-.028-.355a1.193 1.193 0 0 0-.084-.25.424.424 0 0 0-.165-.188.941.941 0 0 0-.268-.105A5.477 5.477 0 0 0 7.709.327C6.714.317 6.075.38 5.792.515a1.077 1.077 0 0 0-.305.234c-.096.115-.11.177-.04.187.32.047.548.16.682.336l.048.094c.037.068.075.187.112.36.038.171.062.361.072.57.027.38.027.705 0 .975-.027.271-.052.482-.076.633a1.242 1.242 0 0 1-.205.539.136.136 0 0 1-.04.039.615.615 0 0 1-.216.04.516.516 0 0 1-.273-.11 1.906 1.906 0 0 1-.333-.301 4.023 4.023 0 0 1-.389-.535 9.366 9.366 0 0 1-.449-.812l-.128-.227a19.29 19.29 0 0 1-.33-.636 12.676 12.676 0 0 1-.368-.809.517.517 0 0 0-.193-.25L3.321.82a.87.87 0 0 0-.313-.117L.812.717c-.225 0-.377.05-.457.149L.32.913a.247.247 0 0 0-.024.125c0 .057.016.127.049.21.32.735.67 1.443 1.046 2.125.377.682.705 1.231.983 1.648.278.416.561.81.85 1.179.289.37.48.607.573.71.094.105.168.183.221.235l.2.187c.129.125.317.275.566.45.249.174.524.346.826.515.302.17.654.307 1.055.414.401.107.791.15 1.171.129h.923c.187-.016.328-.073.425-.172l.032-.04a.51.51 0 0 0 .06-.144.774.774 0 0 0 .028-.214 2.507 2.507 0 0 1 .052-.605c.04-.18.085-.315.136-.407a1 1 0 0 1 .31-.343.532.532 0 0 1 .063-.027c.129-.042.28-.002.454.12.173.123.336.274.489.454.152.18.335.381.55.605.213.224.4.39.56.5l.161.093c.107.063.246.12.417.172a.94.94 0 0 0 .45.04L15 8.84c.203 0 .36-.033.473-.098.112-.065.179-.136.2-.214a.588.588 0 0 0 .005-.266.957.957 0 0 0-.057-.207z"/></symbol></svg>