<?xml version="1.0" encoding="utf-8"?><svg xmlns="http://www.w3.org/2000/svg" xmlns:xlink="http://www.w3.org/1999/xlink"><symbol viewBox="0 0 9 17" id="icon-arrow-left" xmlns="http://www.w3.org/2000/svg"><path d="M8.461 1.308L1.154 8.615l7.307 7.308"/></symbol><symbol viewBox="0 0 9 17" id="icon-arrow-right" xmlns="http://www.w3.org/2000/svg"><path d="M.538 15.692l7.308-7.307L.54 1.077"/></symbol><symbol viewBox="0 0 10 6" id="icon-arrow-top" xmlns="http://www.w3.org/2000/svg"><path d="M1 5l4-4 4 4"/></symbol><symbol viewBox="0 0 14 14" id="icon-basket" xmlns="http://www.w3.org/2000/svg"><path d="M4.2 11.2c-.77 0-1.4.63-1.4 1.4 0 .77.63 1.4 1.4 1.4.77 0 1.4-.63 1.4-1.4 0-.77-.63-1.4-1.4-1.4zM0 0v1.4h1.4l2.52 5.32-.98 1.68c-.07.21-.14.49-.14.7 0 .77.63 1.4 1.4 1.4h8.4V9.1H4.48a.15.15 0 0 1-.14-.14v-.07l.63-1.19h5.18c.56 0 .98-.28 1.19-.7l2.52-4.55c.14-.14.14-.21.14-.35 0-.42-.28-.7-.7-.7H2.94L2.31 0H0zm11.2 11.2c-.77 0-1.4.63-1.4 1.4 0 .77.63 1.4 1.4 1.4.77 0 1.4-.63 1.4-1.4 0-.77-.63-1.4-1.4-1.4z"/></symbol><symbol viewBox="0 0 34 34" id="icon-best-price" xmlns="http://www.w3.org/2000/svg"><g clip-path="url(#eclip0)"><path d="M11.807 13.74a.663.663 0 1 0-.937-.938.663.663 0 0 0 .937.939zm6.574.94a1.991 1.991 0 1 0-2.818-2.82 1.991 1.991 0 0 0 2.818 2.82zm-1.878-1.878a.664.664 0 1 1 .94.94.664.664 0 0 1-.94-.94zm-.94 6.573a1.992 1.992 0 1 0 2.816 2.818 1.992 1.992 0 0 0-2.816-2.818zm1.88 1.879a.664.664 0 1 1-.94-.94.664.664 0 0 1 .94.94zm-5.818-3.157c.072.36.422.593.782.52l9.39-1.878a.664.664 0 0 0-.26-1.302l-9.39 1.879a.664.664 0 0 0-.522.781z"/><path d="M20.188 3.757a.664.664 0 0 0-.47.194l-6.971 6.972a.664.664 0 0 0 .939.94l6.502-6.503 8.452 8.452L13.732 28.72 5.28 20.268l4.65-4.65a.664.664 0 1 0-.94-.938l-5.119 5.119a.663.663 0 0 0 0 .939l9.391 9.39c.26.26.68.26.94 0l15.847-15.847a.663.663 0 0 0 0-.939l-9.391-9.39a.664.664 0 0 0-.47-.195z"/><path d="M32.865.195l-2.85 2.85c-1.663-1.256-3.96-1.276-5.609-.052L22.072.59l-.007-.007a1.99 1.99 0 0 0-2.818 0L.583 19.33a1.992 1.992 0 0 0 0 2.818l2.634 2.634a4.719 4.719 0 0 0 6.001 6.001l2.634 2.634c.778.779 2.04.778 2.817.001l18.746-18.666a1.99 1.99 0 0 0-.007-2.824l-2.402-2.334c1.22-1.638 1.216-3.935-.052-5.609l2.85-2.85a.664.664 0 0 0-.939-.94zm-3.24 8.97a.666.666 0 0 0 .008.945l2.846 2.766a.663.663 0 0 1-.002.935L13.73 32.477a.666.666 0 0 1-.94 0l-2.945-2.945a.663.663 0 0 0-.752-.132c-1.277.6-2.81.326-3.815-.68a3.38 3.38 0 0 1-.68-3.815.664.664 0 0 0-.132-.752l-2.945-2.945a.665.665 0 0 1 .001-.94L20.187 1.522a.664.664 0 0 1 .936-.003l2.766 2.846c.248.255.673.28.946.007 1.137-1.137 2.917-1.258 4.228-.376l-.974.974a1.996 1.996 0 0 0-2.267.389 1.992 1.992 0 1 0 3.207.55l.974-.975c.875 1.296.774 3.078-.377 4.23zM27.7 6.298a.664.664 0 1 1-.938.94.664.664 0 0 1 .938-.94z"/></g><defs><clipPath id="eclip0"><path d="M0 0h34v34H0z"/></clipPath></defs></symbol><symbol viewBox="0 0 12 10" id="icon-checked" xmlns="http://www.w3.org/2000/svg"><path d="M1 5l3 3 7-7"/></symbol><symbol viewBox="0 0 16 16" id="icon-favourites" xmlns="http://www.w3.org/2000/svg"><g clip-path="url(#gclip0)"><path d="M7.664 15.125a.842.842 0 0 1-.577-.232 176.557 176.557 0 0 0-1.697-1.565l-.002-.003c-1.504-1.373-2.802-2.56-3.705-3.728C.673 8.29.203 7.052.203 5.699c0-1.315.42-2.528 1.184-3.416C2.159 1.385 3.219.89 4.37.89c.862 0 1.65.292 2.345.868.35.29.668.646.948 1.061a5 5 0 0 1 .948-1.061c.694-.576 1.483-.868 2.344-.868 1.152 0 2.212.495 2.985 1.393.763.888 1.183 2.1 1.183 3.416 0 1.353-.47 2.591-1.48 3.898-.903 1.168-2.2 2.354-3.704 3.728-.513.47-1.096 1.001-1.7 1.568a.842.842 0 0 1-.576.232zM4.37 1.827c-.905 0-1.737.388-2.342 1.091-.614.715-.952 1.702-.952 2.78 0 1.139.395 2.156 1.279 3.3.855 1.107 2.126 2.269 3.598 3.614l.003.002c.515.47 1.098 1.004 1.705 1.573.611-.57 1.196-1.104 1.711-1.575 1.472-1.345 2.744-2.507 3.599-3.613.884-1.145 1.278-2.162 1.278-3.3 0-1.079-.338-2.066-.952-2.78a3.053 3.053 0 0 0-2.342-1.092c-.663 0-1.272.226-1.81.672-.479.398-.813.9-1.008 1.252a.541.541 0 0 1-.474.288.541.541 0 0 1-.474-.288c-.196-.352-.53-.854-1.009-1.252-.538-.446-1.146-.672-1.81-.672z"/></g><defs><clipPath id="gclip0"><path transform="matrix(1 0 0 -1 .203 16)" d="M0 0h14.921v16H0z"/></clipPath></defs></symbol><symbol viewBox="0 0 8 16" id="icon-fb" xmlns="http://www.w3.org/2000/svg"><path d="M4.514 15.895V7.989h2.583l.408-2.62H4.514V4.057c0-.684.222-1.336 1.193-1.336H7.65V.105H4.892c-2.318 0-2.95 1.542-2.95 3.678v1.585H.352V7.99h1.59v7.906h2.572z"/></symbol><symbol viewBox="0 0 36 37" id="icon-guarantee" xmlns="http://www.w3.org/2000/svg"><g clip-path="url(#iclip0)"><path d="M16.612 25.095a.737.737 0 0 0 0-1.022.693.693 0 0 0-.997 0 .737.737 0 0 0 0 1.022.693.693 0 0 0 .997 0zM13.276 7.947c0 4.382 3.476 7.947 7.748 7.947 4.271 0 7.747-3.565 7.747-7.947S25.295 0 21.024 0c-4.272 0-7.748 3.565-7.748 7.947zm14.087 0c0 3.585-2.844 6.502-6.34 6.502-3.495 0-6.338-2.917-6.338-6.502s2.843-6.502 6.339-6.502c3.495 0 6.338 2.917 6.338 6.502z"/><path d="M8.148 36.786a.692.692 0 0 0 .994.006l3.414-3.45c.58-.596.757-1.476.502-2.242l.734-.727a2.073 2.073 0 0 1 1.467-.608h9.363a6.224 6.224 0 0 0 4.42-1.842c.05-.05-.37.46 6.389-7.827 1.002-1.217.852-3.044-.335-4.074a2.775 2.775 0 0 0-3.952.323l-4.156 4.381a2.804 2.804 0 0 0-2.19-1.075h-7.854a8.889 8.889 0 0 0-3.527-.723c-3.392 0-6.353 1.607-7.942 4.62a2.07 2.07 0 0 0-1.884.599l-3.35 3.447a.736.736 0 0 0-.001 1.019l7.908 8.173zm5.269-16.413a7.52 7.52 0 0 1 3.1.662c.09.04.186.06.283.06h7.998c.763 0 1.409.64 1.409 1.446 0 .797-.632 1.445-1.41 1.445h-5.746a.714.714 0 0 0-.704.722c0 .4.316.722.704.722h5.747c1.553 0 2.817-1.296 2.817-2.89 0-.126-.009-.252-.025-.377 4.02-4.24 4.587-4.835 4.612-4.864a1.389 1.389 0 0 1 1.985-.173c.594.515.669 1.428.166 2.04l-6.318 7.746a4.84 4.84 0 0 1-3.413 1.409h-9.363c-.918 0-1.786.36-2.445 1.012l-.599.593-5.517-5.66c1.29-2.481 3.709-3.893 6.719-3.893zm-8.83 4.795a.69.69 0 0 1 .873-.102c.122.076-.228-.25 6.1 6.232a.737.737 0 0 1 .004 1.018l-2.91 2.942-6.921-7.153 2.855-2.937z"/></g><defs><clipPath id="iclip0"><path d="M0 0h36v37H0z"/></clipPath></defs></symbol><symbol viewBox="0 0 11 11" id="icon-heart" xmlns="http://www.w3.org/2000/svg"><path fill-rule="evenodd" clip-rule="evenodd" d="M5.075 10.323a.62.62 0 0 0 .425.171c.157 0 .308-.06.425-.171.446-.418.875-.81 1.253-1.156C8.286 8.155 9.243 7.28 9.91 6.42 10.653 5.456 11 4.542 11 3.545c0-.97-.31-1.863-.873-2.518A2.87 2.87 0 0 0 7.927 0 2.65 2.65 0 0 0 6.2.64a3.691 3.691 0 0 0-.699.782 3.69 3.69 0 0 0-.7-.782A2.65 2.65 0 0 0 3.073 0c-.85 0-1.631.365-2.2 1.027C.31 1.682 0 2.576 0 3.545c0 .997.347 1.91 1.091 2.874.666.861 1.623 1.736 2.731 2.748l.002.002c.378.346.806.737 1.25 1.154z"/></symbol><symbol viewBox="0 0 14 16" id="icon-instagram" xmlns="http://www.w3.org/2000/svg"><g clip-path="url(#kclip0)"><path d="M10.167.895H3.832C1.78.895.108 2.617.108 4.735v6.53c0 2.118 1.67 3.84 3.724 3.84h6.335c2.054 0 3.725-1.722 3.725-3.84v-6.53c0-2.118-1.671-3.84-3.725-3.84zm2.611 10.37c0 1.485-1.171 2.692-2.61 2.692H3.831c-1.44 0-2.61-1.207-2.61-2.691V4.734c0-1.484 1.17-2.691 2.61-2.691h6.335c1.44 0 2.611 1.207 2.611 2.691v6.532z"/><path d="M10.084 7.504a3.2 3.2 0 0 0-.871-1.786 3.037 3.037 0 0 0-2.64-.898 3.056 3.056 0 0 0-2.028 1.253A3.24 3.24 0 0 0 3.97 8.44a3.184 3.184 0 0 0 1.216 2.092 3.007 3.007 0 0 0 2.294.593A3.056 3.056 0 0 0 9.51 9.87a3.24 3.24 0 0 0 .574-2.366zM7.317 9.988A1.92 1.92 0 0 1 5.85 9.61a2.04 2.04 0 0 1-.778-1.338 2.073 2.073 0 0 1 .368-1.514 1.955 1.955 0 0 1 1.878-.802c.868.133 1.537.823 1.666 1.718.16 1.112-.587 2.15-1.666 2.315zm3.561-5.986a.552.552 0 0 0-.394-.168.552.552 0 0 0-.394.168.587.587 0 0 0 0 .812.553.553 0 0 0 .394.168c.147 0 .29-.061.394-.168a.587.587 0 0 0 0-.812z"/></g><defs><clipPath id="kclip0"><path transform="translate(.108 .895)" d="M0 0h13.784v14.21H0z"/></clipPath></defs></symbol><symbol viewBox="0 0 28 29" id="icon-like" xmlns="http://www.w3.org/2000/svg"><g clip-path="url(#lclip0)"><path d="M10.36 14.443a.472.472 0 0 0-.667-.191l-3.393 2.1a.547.547 0 0 0-.179.715c.135.25.435.336.668.192l3.392-2.1a.547.547 0 0 0 .179-.716zm9.023-6.191l-3.392 2.1a.547.547 0 0 0-.18.716c.135.25.435.336.668.192l3.393-2.1a.547.547 0 0 0 .178-.716.47.47 0 0 0-.667-.192zm-7.871 1.581a.547.547 0 0 0 .179-.716L9.732 5.48a.472.472 0 0 0-.667-.191.547.547 0 0 0-.18.715l1.96 3.638c.134.25.434.336.667.192zm2.758-.387a.53.53 0 0 0 .229-.318l1.015-4.062c.07-.28-.085-.568-.346-.643-.262-.075-.53.091-.6.371l-1.015 4.062c-.07.28.085.568.346.643a.475.475 0 0 0 .371-.053zm-4.82 2.808a.461.461 0 0 0 .37-.053.53.53 0 0 0 .229-.318c.07-.28-.085-.567-.346-.643l-3.788-1.088c-.262-.075-.53.09-.6.371-.07.28.085.568.346.643l3.788 1.088z"/><path d="M19.712 12.47a1.911 1.911 0 0 0-1.385.248l-.385.238-1.382.856-.656.406-.988-1.834c-.472-.877-1.06-1.366-1.748-1.449-1.083-.126-1.935.85-1.973.894a.554.554 0 0 0-.064.614l1.19 2.213c.363.673.371 1.43.021 2.256a4.498 4.498 0 0 1-.69 1.128l-.036.038a.94.94 0 0 0-.822.09l-1.608.995c-.48.297-.645.959-.368 1.473l3.046 5.657c.277.515.894.692 1.374.395l1.615-1a1.05 1.05 0 0 0 .44-.564 1.93 1.93 0 0 0 1.536-.22l1.604-.994.166-.102 3.283-2.033c.508-.314.884-.724 1.094-1.181.266-.589.267-1.26-.002-1.95l-1.688-4.753c-.26-.736-.864-1.28-1.574-1.42zm-5.337 12.27a.031.031 0 0 1-.01.041l-1.616 1c-.014.01-.03.004-.039-.01l-3.045-5.658a.031.031 0 0 1 .01-.041l1.615-1c.014-.01.031-.004.04.01l3.045 5.658zm6-10.47l1.692 4.76a.05.05 0 0 1 .007.02c.112.279.446 1.126-.679 1.822l-3.283 2.033-.165.102-1.605.994c-.451.28-1.042.16-1.37-.276a1.244 1.244 0 0 0-.04-.046l-2.618-4.863.02-.023c.008-.004.009-.01.016-.015.02-.022.523-.575.872-1.402.489-1.144.472-2.268-.054-3.243l-.99-1.838c.22-.17.546-.358.882-.319.362.043.7.358 1.008.929l1.232 2.288c.134.25.435.335.667.191l1.08-.668 1.382-.855.384-.238a1.01 1.01 0 0 1 .717-.127c.38.078.7.374.845.773z"/></g><defs><clipPath id="lclip0"><path transform="matrix(.85025 -.52639 .47407 .88049 .524 10.575)" d="M0 0h20.09v20.803H0z"/></clipPath></defs></symbol><symbol viewBox="0 0 34 34" id="icon-original" xmlns="http://www.w3.org/2000/svg"><path d="M30.946 29.537l-3.567-4.586a5.163 5.163 0 0 0 2.822-2.089c.84-1.452.46-3.224.092-4.936a13.476 13.476 0 0 1-.396-2.685c.041-.906.174-1.807.396-2.687.366-1.713.748-3.484-.092-4.933-.87-1.503-2.622-2.06-4.316-2.597a12.552 12.552 0 0 1-2.437-.954 11.904 11.904 0 0 1-1.952-1.583C20.239 1.321 18.814 0 17 0c-1.814 0-3.239 1.32-4.496 2.487a11.915 11.915 0 0 1-1.952 1.583 12.55 12.55 0 0 1-2.437.952C6.421 5.559 4.67 6.115 3.8 7.618c-.84 1.452-.46 3.224-.093 4.936.222.88.355 1.78.396 2.687a13.477 13.477 0 0 1-.396 2.688c-.366 1.712-.748 3.483.092 4.933a5.163 5.163 0 0 0 2.825 2.089l-3.57 4.586a.586.586 0 0 0 .536.941l4.191-.523 1.035 3.62a.586.586 0 0 0 1.026.199l3.744-4.815A5.421 5.421 0 0 0 17 30.483a5.421 5.421 0 0 0 3.414-1.524l3.744 4.813a.586.586 0 0 0 1.026-.197l1.035-3.62 4.191.524a.586.586 0 0 0 .536-.942zm-21.32 2.605L8.77 29.15a.586.586 0 0 0-.636-.42l-3.283.41 2.943-3.782.324.104c.842.232 1.658.55 2.434.952.705.457 1.36.988 1.952 1.582l.202.187-3.08 3.96zM17 29.31c-1.354 0-2.493-1.055-3.7-2.173a12.919 12.919 0 0 0-2.162-1.74 13.597 13.597 0 0 0-2.67-1.055c-1.548-.492-3.012-.956-3.655-2.066-.613-1.06-.296-2.538.04-4.104.241-.96.383-1.942.423-2.93a14.35 14.35 0 0 0-.423-2.932c-.336-1.564-.652-3.042-.04-4.103C5.46 7.097 6.92 6.632 8.47 6.14a13.52 13.52 0 0 0 2.669-1.056A12.92 12.92 0 0 0 13.3 3.346c1.207-1.118 2.346-2.174 3.7-2.174s2.493 1.056 3.7 2.174a12.929 12.929 0 0 0 2.162 1.74c.85.444 1.745.798 2.669 1.055 1.55.491 3.013.956 3.656 2.066.613 1.06.296 2.538-.04 4.103-.241.96-.383 1.942-.423 2.931.04.99.181 1.972.423 2.931.336 1.565.652 3.043.039 4.104-.645 1.11-2.106 1.574-3.655 2.066-.925.257-1.82.61-2.669 1.055a12.92 12.92 0 0 0-2.162 1.74c-1.207 1.118-2.346 2.173-3.7 2.173zm8.869-.581a.586.586 0 0 0-.636.42l-.858 2.993-3.08-3.96.201-.186a11.91 11.91 0 0 1 1.952-1.583c.777-.402 1.593-.72 2.436-.952l.325-.104 2.942 3.782-3.282-.41z"/><path d="M17 4.69c-5.828 0-10.552 4.724-10.552 10.551 0 5.828 4.724 10.552 10.552 10.552 5.828 0 10.552-4.724 10.552-10.552C27.545 9.417 22.825 4.697 17 4.69zm0 19.93a9.38 9.38 0 1 1 9.38-9.379 9.39 9.39 0 0 1-9.38 9.38z"/><path d="M23.764 12.793a1.172 1.172 0 0 0-.948-.483h-3.588l-1.114-3.415a1.172 1.172 0 0 0-2.228 0l-1.11 3.415h-3.592a1.172 1.172 0 0 0-.69 2.12l2.904 2.111-1.11 3.416a1.172 1.172 0 0 0 1.805 1.31L17 19.158l2.906 2.111c.41.304.97.304 1.379 0 .415-.295.588-.828.425-1.31L20.6 16.54l2.906-2.11a1.172 1.172 0 0 0 .258-1.638zm-4.197 3.05a.586.586 0 0 0-.213.656l1.241 3.821-3.25-2.361a.586.586 0 0 0-.689 0l-3.25 2.361 1.24-3.82a.586.586 0 0 0-.212-.656l-3.25-2.361H15.2a.586.586 0 0 0 .557-.405L17 9.257l1.242 3.82a.586.586 0 0 0 .557.405h4.017l-3.25 2.361z"/></symbol><symbol viewBox="0 0 18 15" id="icon-picture" xmlns="http://www.w3.org/2000/svg"><path d="M.5 2A1.5 1.5 0 0 1 2 .5h14A1.5 1.5 0 0 1 17.5 2v11a1.5 1.5 0 0 1-1.5 1.5H2A1.5 1.5 0 0 1 .5 13V2z"/><circle cx="10.5" cy="5.5" r="2"/></symbol><symbol viewBox="0 0 13 17" id="icon-play" xmlns="http://www.w3.org/2000/svg"><path fill-rule="evenodd" clip-rule="evenodd" d="M0 1.547C0 .155 2.266-.526 3.55.48l8.878 6.953c.762.597.762 1.537 0 2.134L3.55 16.52C2.266 17.526 0 16.845 0 15.453V1.547z"/></symbol><symbol viewBox="0 0 6 10" id="icon-question" xmlns="http://www.w3.org/2000/svg"><path d="M2.4 6.552a1.506 1.506 0 0 1-.396-1.056c0-.32.092-.608.276-.864.184-.256.384-.448.6-.576.216-.128.416-.28.6-.456s.276-.352.276-.528c0-.2-.08-.364-.24-.492-.152-.128-.384-.192-.696-.192-.568 0-1.06.248-1.476.744L.372 2.04C1.036 1.264 1.912.876 3 .876c.768 0 1.376.176 1.824.528.448.344.672.8.672 1.368 0 .32-.068.608-.204.864a1.966 1.966 0 0 1-.504.624c-.192.16-.388.308-.588.444-.2.136-.368.284-.504.444a.783.783 0 0 0-.204.516c0 .208.072.376.216.504L2.4 6.552zm1.26 2.292a.934.934 0 0 1-.684.288.934.934 0 0 1-.684-.288.934.934 0 0 1-.288-.684c0-.264.096-.492.288-.684a.934.934 0 0 1 .684-.288c.264 0 .492.096.684.288.192.192.288.42.288.684a.934.934 0 0 1-.288.684z"/></symbol><symbol viewBox="0 0 18 18" id="icon-search" xmlns="http://www.w3.org/2000/svg"><path d="M15.775 2.225A7.547 7.547 0 0 0 10.403 0C8.373 0 6.465.79 5.03 2.225a7.548 7.548 0 0 0-2.225 5.372c0 1.55.462 3.03 1.319 4.281L.41 15.572c-.264.265-.41.617-.41.991a1.398 1.398 0 0 0 1.402 1.4 1.39 1.39 0 0 0 .99-.408l3.71-3.692a7.543 7.543 0 0 0 4.3 1.332c2.03 0 3.938-.79 5.373-2.226A7.547 7.547 0 0 0 18 7.598c0-2.029-.79-3.937-2.225-5.372zM1.647 16.81a.348.348 0 0 1-.492-.49l3.628-3.61a7.718 7.718 0 0 0 .49.492L1.647 16.81zm13.382-4.585a6.55 6.55 0 0 1-9.253 0 6.55 6.55 0 0 1 0-9.253 6.5 6.5 0 0 1 4.627-1.916 6.5 6.5 0 0 1 4.626 1.916 6.55 6.55 0 0 1 0 9.253z"/><path d="M14.496 3.504a5.796 5.796 0 0 0-8.187 0 5.796 5.796 0 0 0 0 8.187 5.772 5.772 0 0 0 4.094 1.693 5.772 5.772 0 0 0 4.093-1.693 5.796 5.796 0 0 0 0-8.187zm-.745 7.442a4.74 4.74 0 0 1-6.697 0 4.74 4.74 0 0 1 0-6.696 4.72 4.72 0 0 1 3.349-1.385A4.72 4.72 0 0 1 13.75 4.25a4.74 4.74 0 0 1 0 6.696z"/></symbol><symbol viewBox="0 0 14 14" id="icon-share" xmlns="http://www.w3.org/2000/svg"><path fill-rule="evenodd" clip-rule="evenodd" d="M4.2 7c0 .14-.014.275-.04.407l6.276 2.987a2.1 2.1 0 1 1-.621 1.255L3.442 8.615a2.1 2.1 0 1 1 0-3.23l6.373-3.033a2.1 2.1 0 1 1 .622 1.255L4.16 6.593c.026.131.039.267.039.406z"/></symbol><symbol viewBox="0 0 21 19" id="icon-star" xmlns="http://www.w3.org/2000/svg"><path fill-rule="evenodd" clip-rule="evenodd" d="M15.168 11.983l1.193 6.795-6.248-3.207-6.25 3.207 1.193-6.795L0 7.173l6.988-.992L10.113 0l3.124 6.18 6.988.993-5.057 4.81z"/></symbol><symbol viewBox="0 0 13 18" id="icon-user" xmlns="http://www.w3.org/2000/svg"><path d="M0 15.235l.312.288c.02.019.043.034.063.053a9.815 9.815 0 0 0 .684.565c.187.14.38.274.575.401.043.028.086.054.13.081.214.134.433.26.658.375l.05.025a8.966 8.966 0 0 0 2.329.806l.064.013c.254.048.51.086.77.112l.095.008c.258.023.52.038.784.038.262 0 .521-.015.778-.038l.098-.008a8.93 8.93 0 0 0 .763-.11l.008-.001.057-.012a8.963 8.963 0 0 0 2.296-.787l.08-.04a9.394 9.394 0 0 0 1.342-.838c.065-.048.129-.099.193-.15a9.78 9.78 0 0 0 .451-.376c.033-.029.068-.054.1-.083l.32-.293-.563-.495a2.61 2.61 0 0 0-.313-.206l-2.966-1.621a.86.86 0 0 1-.431-.763v-1.133a6.33 6.33 0 0 0 .216-.313 8.1 8.1 0 0 0 .916-1.962c.444-.23.73-.714.73-1.26V6.155c0-.332-.11-.654-.31-.907V3.459c.018-.199.082-1.32-.66-2.245C8.974.408 7.93 0 6.514 0s-2.46.408-3.105 1.213c-.742.926-.678 2.048-.66 2.246v1.787c-.199.254-.31.576-.31.908V7.51c0 .422.173.815.469 1.08a7.475 7.475 0 0 0 1.082 2.45v1.108a.87.87 0 0 1-.407.75L.815 14.549a2.51 2.51 0 0 0-.263.182L0 15.235z"/></symbol><symbol viewBox="0 0 16 9" id="icon-vk" xmlns="http://www.w3.org/2000/svg"><path d="M15.621 8.055a1.018 1.018 0 0 0-.052-.097c-.267-.47-.778-1.045-1.532-1.727l-.016-.015-.008-.008-.008-.008h-.008a9.161 9.161 0 0 1-.65-.64c-.166-.208-.203-.42-.112-.633.064-.161.305-.502.722-1.023.219-.276.393-.497.52-.664.926-1.197 1.327-1.963 1.204-2.296l-.048-.078c-.032-.047-.115-.09-.248-.129a1.296 1.296 0 0 0-.514-.02l-2.31.016a.308.308 0 0 0-.16.004l-.104.024-.04.02-.032.023a.352.352 0 0 0-.089.082.53.53 0 0 0-.08.137c-.251.63-.537 1.215-.858 1.757-.198.323-.38.602-.546.84a4.054 4.054 0 0 1-.417.523 2.871 2.871 0 0 1-.305.269c-.09.068-.16.096-.208.086a6.047 6.047 0 0 1-.136-.031.525.525 0 0 1-.18-.192.84.84 0 0 1-.093-.304 3.272 3.272 0 0 1-.024-.692c.005-.161.008-.27.008-.328 0-.197.004-.412.012-.644.008-.232.014-.415.02-.55.005-.136.008-.279.008-.43 0-.151-.01-.27-.028-.355a1.193 1.193 0 0 0-.084-.25.424.424 0 0 0-.165-.188.941.941 0 0 0-.268-.105A5.477 5.477 0 0 0 7.709.327C6.714.317 6.075.38 5.792.515a1.077 1.077 0 0 0-.305.234c-.096.115-.11.177-.04.187.32.047.548.16.682.336l.048.094c.037.068.075.187.112.36.038.171.062.361.072.57.027.38.027.705 0 .975-.027.271-.052.482-.076.633a1.242 1.242 0 0 1-.205.539.136.136 0 0 1-.04.039.615.615 0 0 1-.216.04.516.516 0 0 1-.273-.11 1.906 1.906 0 0 1-.333-.301 4.023 4.023 0 0 1-.389-.535 9.366 9.366 0 0 1-.449-.812l-.128-.227a19.29 19.29 0 0 1-.33-.636 12.676 12.676 0 0 1-.368-.809.517.517 0 0 0-.193-.25L3.321.82a.87.87 0 0 0-.313-.117L.812.717c-.225 0-.377.05-.457.149L.32.913a.247.247 0 0 0-.024.125c0 .057.016.127.049.21.32.735.67 1.443 1.046 2.125.377.682.705 1.231.983 1.648.278.416.561.81.85 1.179.289.37.48.607.573.71.094.105.168.183.221.235l.2.187c.129.125.317.275.566.45.249.174.524.346.826.515.302.17.654.307 1.055.414.401.107.791.15 1.171.129h.923c.187-.016.328-.073.425-.172l.032-.04a.51.51 0 0 0 .06-.144.774.774 0 0 0 .028-.214 2.507 2.507 0 0 1 .052-.605c.04-.18.085-.315.136-.407a1 1 0 0 1 .31-.343.532.532 0 0 1 .063-.027c.129-.042.28-.002.454.12.173.123.336.274.489.454.152.18.335.381.55.605.213.224.4.39.56.5l.161.093c.107.063.246.12.417.172a.94.94 0 0 0 .45.04L15 8.84c.203 0 .36-.033.473-.098.112-.065.179-.136.2-.214a.588.588 0 0 0 .005-.266.957.957 0 0 0-.057-.207z"/></symbol></svg>