<svg width="64" height="64" viewBox="0 0 64 64" fill="none" xmlns="http://www.w3.org/2000/svg">
<g clip-path="url(#clip0)">
<path d="M18.9383 27.7667L18.936 27.8074C18.7801 30.5693 20.3105 33.1566 22.836 34.3971L22.8619 34.4099C23.7523 34.8404 24.4821 35.5502 24.9426 36.4328L24.9529 36.452C26.2255 38.9015 28.8575 40.3863 31.6633 40.2373L31.7059 40.235C32.7235 40.1774 33.7336 40.4427 34.5947 40.9943C36.9706 42.4965 39.9865 42.4965 42.3624 40.9943C43.2234 40.4427 44.2335 40.1774 45.2511 40.235L45.2937 40.2373C48.0949 40.3874 50.7304 38.9015 52.0058 36.448L52.0122 36.4346C52.4743 35.5496 53.2059 34.8387 54.0992 34.4075L54.1199 34.3971C56.6454 33.1561 58.1764 30.5693 58.0198 27.8069L58.0175 27.7685C57.9657 26.7957 58.2328 25.8328 58.7784 25.0293C60.3491 22.7136 60.3491 19.6603 58.779 17.3441C58.234 16.5412 57.9657 15.5789 58.0175 14.6061L58.0198 14.5653C58.1764 11.8029 56.6454 9.21614 54.1176 7.97454L54.0945 7.96291C53.2059 7.53353 52.4778 6.82721 52.0168 5.94692L52.0035 5.92074C50.7304 3.4713 48.0949 1.98709 45.2937 2.13546L45.2505 2.13778C44.2335 2.19538 43.2234 1.93007 42.363 1.37851H42.3618C39.9859 -0.12373 36.97 -0.12373 34.5941 1.37851C33.733 1.92949 32.7229 2.1948 31.7054 2.1372L31.6628 2.13487C28.8609 1.98477 26.226 3.47072 24.9535 5.91958L24.9437 5.93761C24.4827 6.82197 23.7523 7.53237 22.8608 7.96349L22.8366 7.97513C20.311 9.21555 18.7801 11.8029 18.9366 14.5653L18.9389 14.6037C18.9907 15.5765 18.7237 16.5394 18.178 17.3423C16.6073 19.6585 16.6073 22.7125 18.178 25.0281C18.7231 25.831 18.9907 26.7939 18.9383 27.7667ZM20.1182 18.6956C20.9603 17.4564 21.3729 15.9704 21.2924 14.4693L21.2901 14.4286C21.2072 12.5982 22.2236 10.8982 23.8645 10.1203L23.8847 10.1104C25.2309 9.45875 26.3331 8.38589 27.0284 7.0512L27.0399 7.0291C27.8854 5.40118 29.6564 4.41442 31.5373 4.51566L31.5787 4.5174C33.0838 4.60293 34.5774 4.21079 35.8505 3.39508C37.4581 2.37865 39.4978 2.37865 41.1054 3.39508C42.3785 4.20962 43.8721 4.60235 45.3766 4.51798L45.418 4.51566C47.3081 4.41559 49.0705 5.40118 49.9137 7.02444L49.9292 7.05411C50.6245 8.38705 51.7256 9.45817 53.0701 10.1092L53.0896 10.1191C54.7564 10.9383 55.7683 12.6296 55.6664 14.4292L55.6641 14.4717C55.5835 15.9727 55.9968 17.4581 56.8388 18.6974C57.8564 20.1979 57.8558 22.1761 56.8377 23.676C55.9962 24.9158 55.5835 26.4018 55.6641 27.9029L55.6664 27.943C55.7683 29.7425 54.7564 31.4345 53.089 32.2542L53.0718 32.2624C51.7244 32.9152 50.6211 33.9892 49.9252 35.3262L49.9166 35.3437C49.0705 36.9716 47.3024 37.9589 45.4186 37.8571L45.3777 37.8548C43.8726 37.7698 42.3785 38.1626 41.1048 38.9777C39.4978 39.9935 37.4581 39.9935 35.8511 38.9777C34.6931 38.2359 33.3497 37.8426 31.9787 37.8437C31.8458 37.8437 31.7123 37.8472 31.5787 37.8548L31.5373 37.8565C29.6811 37.9758 27.9251 36.9937 27.0382 35.3408L27.0261 35.3181C26.3319 33.9857 25.2315 32.9152 23.8876 32.2641L23.8657 32.2531C22.1983 31.4339 21.1865 29.742 21.2889 27.943L21.2912 27.9005C21.3712 26.3994 20.958 24.9135 20.1165 23.6748C19.0995 22.1743 19.1001 20.1961 20.1182 18.6968V18.6956Z" fill="#5CBF1A"/>
<path d="M30.8752 33.5046C31.4272 33.8531 32.1541 33.6826 32.4988 33.1247L46.4624 10.5119C46.6904 10.1505 46.7094 9.69324 46.5114 9.31448C46.3134 8.93514 45.9289 8.6931 45.5053 8.67972C45.0817 8.66634 44.6834 8.88394 44.4624 9.2499L30.4994 31.8627C30.1546 32.4213 30.3227 33.1561 30.8752 33.5046Z" fill="#5CBF1A"/>
<path d="M32.1272 21.2452C34.9975 21.2452 37.3331 18.5531 37.3331 15.2443C37.3331 11.9356 34.9975 9.24408 32.1272 9.24408C29.2569 9.24408 26.9219 11.9356 26.9219 15.2443C26.9219 18.5531 29.2569 21.2452 32.1272 21.2452ZM32.1272 11.6272C33.6979 11.6272 34.9756 13.2499 34.9756 15.2443C34.9756 17.2388 33.6979 18.8621 32.1272 18.8621C30.5571 18.8621 29.2794 17.2382 29.2794 15.2443C29.2794 13.2505 30.5571 11.6272 32.1272 11.6272Z" fill="#5CBF1A"/>
<path d="M39.6289 27.1296C39.6289 30.4384 41.9639 33.1299 44.8343 33.1299C47.7046 33.1299 50.0402 30.4378 50.0402 27.1296C50.0402 23.822 47.7051 21.1294 44.8348 21.1294C41.9639 21.1294 39.6289 23.8203 39.6289 27.1296ZM47.6827 27.1296C47.6827 29.1241 46.405 30.7468 44.8343 30.7468C43.2641 30.7468 41.9864 29.1241 41.9864 27.1296C41.9864 25.1352 43.2641 23.5125 44.8343 23.5125C46.405 23.5125 47.6827 25.134 47.6827 27.1296Z" fill="#5CBF1A"/>
<path d="M63.3462 46.916C61.7853 44.1157 58.3239 43.0492 55.4835 44.4933L46.2498 48.9035C44.975 46.507 42.5294 44.9814 39.8381 44.9046L31.3141 44.6673C29.9644 44.6283 28.6401 44.2821 27.44 43.6561L26.5727 43.2017C22.1317 40.8616 16.8383 40.8674 12.4019 43.2168L12.456 41.2305C12.4738 40.5725 11.961 40.0244 11.31 40.0063L1.96297 39.7463C1.31202 39.7282 0.770416 40.2466 0.752574 40.9047L0.187952 61.64C0.170109 62.298 0.682931 62.8461 1.33389 62.8641L10.6809 63.1242H10.7138C11.352 63.1236 11.8741 62.6098 11.8919 61.9652L11.9184 60.9732L14.3467 59.6589C15.2998 59.1405 16.4146 59.0171 17.4558 59.315L31.9559 63.429C31.9812 63.4366 32.0065 63.4424 32.0324 63.4482C33.0805 63.6699 34.1487 63.781 35.2198 63.7805C37.4875 63.7816 39.7288 63.2877 41.7898 62.3312C41.8405 62.3079 41.8894 62.2811 41.936 62.2509L62.96 48.5032C63.4843 48.1611 63.6535 47.4646 63.3462 46.916ZM2.57709 60.5142L3.07668 42.162L10.0674 42.3563L9.56724 60.7091L2.57709 60.5142ZM40.7274 60.2017C38.1667 61.37 35.3068 61.6923 32.5544 61.1233L18.093 57.0209C16.4659 56.5555 14.7231 56.7486 13.2341 57.558L11.9932 58.2294L12.3259 46.027C16.2575 43.3832 21.3006 43.1115 25.4883 45.3172L26.3557 45.7715C27.8717 46.5628 29.5443 46.9998 31.2496 47.0492L39.7737 47.2866C42.168 47.3558 44.2014 49.0792 44.6872 51.4506L31.9904 51.0975C31.3394 51.0794 30.7978 51.5978 30.78 52.2559C30.7622 52.9139 31.275 53.462 31.9259 53.48L45.9379 53.8698H45.9713C46.609 53.8692 47.131 53.3555 47.1489 52.7109C47.1632 52.193 47.1247 51.6746 47.0349 51.165L56.504 46.6414L56.5316 46.628C57.8749 45.9403 59.4997 46.1701 60.6042 47.204L40.7274 60.2017Z" fill="#5CBF1A"/>
</g>
<defs>
<clipPath id="clip0">
<rect width="63.3118" height="64" fill="white" transform="translate(0.1875)"/>
</clipPath>
</defs>
</svg>
